<svg width="78" height="40" viewBox="0 0 78 40" fill="none" xmlns="http://www.w3.org/2000/svg">
<g clip-path="url(#clip0_23_1038)">
<path d="M13.5215 23.4844L15.709 12.7812H18.1602L14.8789 27H12.5156L9.81055 16.6191L7.04688 27H4.67383L1.39258 12.7812H3.84375L6.05078 23.4648L8.76562 12.7812H10.8359L13.5215 23.4844ZM18.9805 21.6191C18.9805 20.584 19.1855 19.653 19.5957 18.8262C20.0059 17.9928 20.582 17.3548 21.3242 16.9121C22.0664 16.4629 22.9193 16.2383 23.8828 16.2383C25.3086 16.2383 26.4642 16.6973 27.3496 17.6152C28.2415 18.5332 28.7233 19.7507 28.7949 21.2676L28.8047 21.8242C28.8047 22.8659 28.6029 23.7969 28.1992 24.6172C27.8021 25.4375 27.2292 26.0723 26.4805 26.5215C25.7383 26.9707 24.8789 27.1953 23.9023 27.1953C22.4115 27.1953 21.2168 26.7005 20.3184 25.7109C19.4264 24.7148 18.9805 23.39 18.9805 21.7363V21.6191ZM21.3535 21.8242C21.3535 22.9115 21.5781 23.7643 22.0273 24.3828C22.4766 24.9948 23.1016 25.3008 23.9023 25.3008C24.7031 25.3008 25.3249 24.9883 25.7676 24.3633C26.2168 23.7383 26.4414 22.8236 26.4414 21.6191C26.4414 20.5514 26.2103 19.7051 25.748 19.0801C25.2923 18.4551 24.6706 18.1426 23.8828 18.1426C23.1081 18.1426 22.4928 18.4518 22.0371 19.0703C21.5814 19.6823 21.3535 20.6003 21.3535 21.8242ZM36.3438 18.6016C36.0312 18.5495 35.709 18.5234 35.377 18.5234C34.2897 18.5234 33.5573 18.9401 33.1797 19.7734V27H30.8066V16.4336H33.0723L33.1309 17.6152C33.7038 16.6973 34.498 16.2383 35.5137 16.2383C35.8522 16.2383 36.1322 16.2839 36.3535 16.375L36.3438 18.6016ZM41.2754 22.4688L40.2207 23.5527V27H37.8477V12H40.2207V20.6523L40.9629 19.7246L43.8828 16.4336H46.7344L42.8086 20.8379L47.1543 27H44.4102L41.2754 22.4688Z" fill="#B3BAC5"/>
<path d="M59.5 21.65L68.65 30.5L77.5 21.65" stroke="#C4C4C4"/>
<path d="M68.65 9.34998V30.65" stroke="#C4C4C4"/>
</g>
<defs>
<clipPath id="clip0_23_1038">
<rect width="77" height="40" fill="white" transform="translate(0.5)"/>
</clipPath>
</defs>
</svg>
