<svg width="77" height="41" viewBox="0 0 77 41" fill="none" xmlns="http://www.w3.org/2000/svg">
<g clip-path="url(#clip0_48_2442)">
<path d="M0 21.8005L9.15 30.6505L18 21.8005" stroke="#C4C4C4"/>
<path d="M9.1499 9.50049V30.8005" stroke="#C4C4C4"/>
<path d="M43.0215 23.6349L45.209 12.9318H47.6602L44.3789 27.1505H42.0156L39.3105 16.7697L36.5469 27.1505H34.1738L30.8926 12.9318H33.3438L35.5508 23.6154L38.2656 12.9318H40.3359L43.0215 23.6349ZM48.4805 21.7697C48.4805 20.7345 48.6855 19.8035 49.0957 18.9767C49.5059 18.1434 50.082 17.5053 50.8242 17.0626C51.5664 16.6134 52.4193 16.3888 53.3828 16.3888C54.8086 16.3888 55.9642 16.8478 56.8496 17.7657C57.7415 18.6837 58.2233 19.9012 58.2949 21.4181L58.3047 21.9747C58.3047 23.0164 58.1029 23.9474 57.6992 24.7677C57.3021 25.588 56.7292 26.2228 55.9805 26.672C55.2383 27.1212 54.3789 27.3458 53.4023 27.3458C51.9115 27.3458 50.7168 26.851 49.8184 25.8615C48.9264 24.8654 48.4805 23.5405 48.4805 21.8868V21.7697ZM50.8535 21.9747C50.8535 23.062 51.0781 23.9148 51.5273 24.5333C51.9766 25.1453 52.6016 25.4513 53.4023 25.4513C54.2031 25.4513 54.8249 25.1388 55.2676 24.5138C55.7168 23.8888 55.9414 22.9741 55.9414 21.7697C55.9414 20.7019 55.7103 19.8556 55.248 19.2306C54.7923 18.6056 54.1706 18.2931 53.3828 18.2931C52.6081 18.2931 51.9928 18.6023 51.5371 19.2208C51.0814 19.8328 50.8535 20.7508 50.8535 21.9747ZM65.8438 18.7521C65.5312 18.7 65.209 18.674 64.877 18.674C63.7897 18.674 63.0573 19.0906 62.6797 19.924V27.1505H60.3066V16.5841H62.5723L62.6309 17.7657C63.2038 16.8478 63.998 16.3888 65.0137 16.3888C65.3522 16.3888 65.6322 16.4344 65.8535 16.5255L65.8438 18.7521ZM70.7754 22.6193L69.7207 23.7032V27.1505H67.3477V12.1505H69.7207V20.8029L70.4629 19.8751L73.3828 16.5841H76.2344L72.3086 20.9884L76.6543 27.1505H73.9102L70.7754 22.6193Z" fill="#A2A3AE"/>
</g>
<defs>
<clipPath id="clip0_48_2442">
<rect width="77" height="40" fill="white" transform="translate(0 0.150513)"/>
</clipPath>
</defs>
</svg>
