<svg width="327" height="292" viewBox="0 0 327 292" fill="none" xmlns="http://www.w3.org/2000/svg">
<rect width="327" height="48" fill="white"/>
<path d="M16.7244 19.2628H20.1548V29H21.4759V19.2628H24.9062V18.0909H16.7244V19.2628ZM29.0185 29.1705C30.6804 29.1705 31.8949 28.3395 32.2784 27.1037L31.0639 26.7628C30.7443 27.6151 30.0039 28.0412 29.0185 28.0412C27.543 28.0412 26.5256 27.0877 26.467 25.3352H32.4062V24.8026C32.4062 21.7557 30.5952 20.7116 28.8906 20.7116C26.6747 20.7116 25.2045 22.4588 25.2045 24.973C25.2045 27.4872 26.6534 29.1705 29.0185 29.1705ZM26.467 24.2486C26.5522 22.9755 27.4524 21.8409 28.8906 21.8409C30.2543 21.8409 31.1278 22.8636 31.1278 24.2486H26.467ZM35.0363 20.8182H33.5874L36.1869 24.9091L33.5874 29H35.0363L36.9965 25.8253L38.9568 29H40.4056L37.7636 24.9091L40.4056 20.8182H38.9568L36.9965 24.1634L35.0363 20.8182ZM45.7576 20.8182H44.0105V18.858H42.7534V20.8182H41.5176V21.8835H42.7534V26.9972C42.7534 28.4247 43.9039 29.1065 44.9693 29.1065C45.438 29.1065 45.7363 29.0213 45.9068 28.9574L45.6511 27.8281C45.5446 27.8494 45.3741 27.892 45.0971 27.892C44.5431 27.892 44.0105 27.7216 44.0105 26.6562V21.8835H45.7576V20.8182ZM53.3588 18.0909H52.0378V29H53.3588V18.0909ZM57.0942 24.0781C57.0942 22.6506 57.9784 21.8409 59.1823 21.8409C60.3488 21.8409 61.0573 22.6026 61.0573 23.8864V29H62.3144V23.8011C62.3144 21.7131 61.2011 20.7116 59.5445 20.7116C58.3087 20.7116 57.5416 21.2656 57.1581 22.0966H57.0516V20.8182H55.8371V29H57.0942V24.0781ZM64.6115 32.0682H65.8686V27.7429H65.9751C66.2521 28.1903 66.7848 29.1705 68.3615 29.1705C70.407 29.1705 71.8345 27.5298 71.8345 24.9304C71.8345 22.3523 70.407 20.7116 68.3402 20.7116C66.7422 20.7116 66.2521 21.6918 65.9751 22.1179H65.826V20.8182H64.6115V32.0682ZM65.8473 24.9091C65.8473 23.0767 66.657 21.8409 68.1911 21.8409C69.7891 21.8409 70.5774 23.1832 70.5774 24.9091C70.5774 26.6562 69.7678 28.0412 68.1911 28.0412C66.6783 28.0412 65.8473 26.7628 65.8473 24.9091ZM78.9084 25.6548C78.9084 27.1889 77.7365 27.892 76.799 27.892C75.755 27.892 75.0092 27.125 75.0092 25.9318V20.8182H73.7521V26.017C73.7521 28.1051 74.8601 29.1065 76.3942 29.1065C77.63 29.1065 78.4396 28.446 78.8232 27.6151H78.9084V29H80.1655V20.8182H78.9084V25.6548ZM86.0262 20.8182H84.279V18.858H83.0219V20.8182H81.7861V21.8835H83.0219V26.9972C83.0219 28.4247 84.1725 29.1065 85.2378 29.1065C85.7066 29.1065 86.0049 29.0213 86.1753 28.9574L85.9197 27.8281C85.8131 27.8494 85.6427 27.892 85.3657 27.892C84.8117 27.892 84.279 27.7216 84.279 26.6562V21.8835H86.0262V20.8182Z" fill="#81818C"/>
<rect x="0.5" y="72.5" width="326" height="47" fill="#F7F3FF" stroke="#9490FF"/>
<path d="M17.1506 92.8182V101.597C17.1506 102.428 16.8097 102.896 16.0426 102.896H15.8082V104.068H16.0639C17.6406 104.068 18.4077 103.109 18.4077 101.597V92.8182H17.1506ZM17.7685 91.4545C18.2585 91.4545 18.6634 91.071 18.6634 90.6023C18.6634 90.1335 18.2585 89.75 17.7685 89.75C17.2784 89.75 16.8736 90.1335 16.8736 90.6023C16.8736 91.071 17.2784 91.4545 17.7685 91.4545ZM24.1405 101.17C25.8025 101.17 27.017 100.339 27.4005 99.1037L26.186 98.7628C25.8664 99.6151 25.126 100.041 24.1405 100.041C22.665 100.041 21.6476 99.0877 21.589 97.3352H27.5283V96.8026C27.5283 93.7557 25.7172 92.7116 24.0127 92.7116C21.7968 92.7116 20.3266 94.4588 20.3266 96.973C20.3266 99.4872 21.7755 101.17 24.1405 101.17ZM21.589 96.2486C21.6743 94.9755 22.5745 93.8409 24.0127 93.8409C25.3763 93.8409 26.2499 94.8636 26.2499 96.2486H21.589ZM29.4406 101H30.6977V95.8224C30.6977 94.7145 31.5713 93.9048 32.7645 93.9048C33.1001 93.9048 33.4463 93.9688 33.5315 93.9901V92.7116C33.3877 92.701 33.0574 92.6903 32.871 92.6903C31.8909 92.6903 31.0386 93.2443 30.7403 94.054H30.6551V92.8182H29.4406V101ZM38.203 101.17C39.865 101.17 41.0795 100.339 41.463 99.1037L40.2485 98.7628C39.9289 99.6151 39.1885 100.041 38.203 100.041C36.7275 100.041 35.7101 99.0877 35.6515 97.3352H41.5908V96.8026C41.5908 93.7557 39.7797 92.7116 38.0752 92.7116C35.8593 92.7116 34.3891 94.4588 34.3891 96.973C34.3891 99.4872 35.838 101.17 38.203 101.17ZM35.6515 96.2486C35.7368 94.9755 36.637 93.8409 38.0752 93.8409C39.4388 93.8409 40.3124 94.8636 40.3124 96.2486H35.6515ZM43.5031 101H44.7602V95.8864C44.7602 94.6879 45.6338 93.8409 46.6139 93.8409C47.5674 93.8409 48.2332 94.4641 48.2332 95.3963V101H49.5116V95.6733C49.5116 94.6186 50.1721 93.8409 51.3227 93.8409C52.2176 93.8409 52.9846 94.315 52.9846 95.5241V101H54.2417V95.5241C54.2417 93.6012 53.2084 92.7116 51.7488 92.7116C50.577 92.7116 49.7194 93.2496 49.2986 94.0966H49.2133C48.8085 93.223 48.0947 92.7116 47.0187 92.7116C45.9534 92.7116 45.165 93.223 44.8241 94.0966H44.7176V92.8182H43.5031V101ZM57.0569 104.047C58.1915 104.047 58.9958 103.445 59.4646 102.193L62.9482 92.8395L61.574 92.8182L59.3154 99.3381H59.2302L56.9717 92.8182H55.608L58.6336 101.043L58.3992 101.682C57.9518 102.907 57.3765 103.024 56.4603 102.79L56.1407 103.898C56.2686 103.962 56.6308 104.047 57.0569 104.047ZM70.897 103.876C71.9837 103.876 73.3686 103.557 74.0291 103.28L73.7308 102.3C73.3473 102.428 72.1115 102.854 70.9396 102.854C67.2962 102.854 65.3572 100.808 65.3572 97.1861C65.3572 93.6278 67.3388 91.4972 70.6839 91.4972C74.0717 91.4972 75.6697 93.8835 75.6697 96.2699C75.6697 98.6989 75.4141 99.7855 74.3274 99.7855C73.6882 99.7855 73.3473 99.2528 73.3473 98.6562V93.8409H72.218V94.4375H72.1541C72.005 93.9688 71.174 93.5639 70.1087 93.6705C68.5107 93.8409 67.2962 95.1619 67.2962 97.0795C67.2962 99.1037 68.255 100.659 70.1087 100.723C71.3232 100.766 71.9624 100.169 72.218 99.5511H72.282C72.4098 100.467 73.5604 100.787 74.3061 100.787C76.5646 100.787 76.7777 98.358 76.7777 96.2912C76.7777 93.3722 74.7322 90.4957 70.7479 90.4957C66.6357 90.4957 64.1854 92.9886 64.1854 97.1435C64.1854 101.447 66.5504 103.876 70.897 103.876ZM70.2791 99.6364C68.8942 99.6364 68.4041 98.3793 68.4041 97.0156C68.4041 95.7798 69.1072 94.7145 70.3217 94.7145C71.6001 94.7145 72.282 95.2259 72.282 97.0156C72.282 98.7841 71.7067 99.6364 70.2791 99.6364ZM81.9619 104.239C83.9221 104.239 85.4988 103.344 85.4988 101.234V92.8182H84.2844V94.1179H84.1565C83.8795 93.6918 83.3682 92.7116 81.7702 92.7116C79.7034 92.7116 78.2758 94.3523 78.2758 96.8665C78.2758 99.4233 79.7673 100.872 81.7488 100.872C83.3469 100.872 83.8582 99.9347 84.1352 99.4872H84.2417V101.149C84.2417 102.513 83.2829 103.131 81.9619 103.131C80.4758 103.131 79.9537 102.348 79.6182 101.895L78.6167 102.598C79.1281 103.456 80.1349 104.239 81.9619 104.239ZM81.9193 99.7429C80.3426 99.7429 79.5329 98.5497 79.5329 96.8452C79.5329 95.1832 80.3213 93.8409 81.9193 93.8409C83.4534 93.8409 84.2631 95.0767 84.2631 96.8452C84.2631 98.6562 83.4321 99.7429 81.9193 99.7429ZM87.8 101H89.0571V95.8864C89.0571 94.6879 89.9307 93.8409 90.9108 93.8409C91.8643 93.8409 92.5301 94.4641 92.5301 95.3963V101H93.8085V95.6733C93.8085 94.6186 94.469 93.8409 95.6196 93.8409C96.5145 93.8409 97.2815 94.315 97.2815 95.5241V101H98.5386V95.5241C98.5386 93.6012 97.5052 92.7116 96.0457 92.7116C94.8738 92.7116 94.0162 93.2496 93.5954 94.0966H93.5102C93.1054 93.223 92.3916 92.7116 91.3156 92.7116C90.2503 92.7116 89.4619 93.223 89.121 94.0966H89.0145V92.8182H87.8V101ZM103.245 101.192C104.672 101.192 105.418 100.425 105.674 99.892H105.738V101H106.995V95.6094C106.995 93.0099 105.013 92.7116 103.969 92.7116C102.733 92.7116 101.327 93.1378 100.688 94.6293L101.881 95.0554C102.158 94.4588 102.813 93.8196 104.012 93.8196C105.168 93.8196 105.738 94.4322 105.738 95.4815V95.5241C105.738 96.1314 105.12 96.0781 103.628 96.2699C102.11 96.467 100.454 96.8026 100.454 98.6776C100.454 100.276 101.689 101.192 103.245 101.192ZM103.437 100.062C102.435 100.062 101.711 99.6151 101.711 98.7415C101.711 97.7827 102.584 97.4844 103.564 97.3565C104.097 97.2926 105.525 97.1435 105.738 96.8878V98.0384C105.738 99.0611 104.928 100.062 103.437 100.062ZM109.289 101H110.546V92.8182H109.289V101ZM109.928 91.4545C110.419 91.4545 110.823 91.071 110.823 90.6023C110.823 90.1335 110.419 89.75 109.928 89.75C109.438 89.75 109.034 90.1335 109.034 90.6023C109.034 91.071 109.438 91.4545 109.928 91.4545ZM114.106 90.0909H112.849V101H114.106V90.0909ZM117.325 101.085C117.852 101.085 118.283 100.654 118.283 100.126C118.283 99.5991 117.852 99.1676 117.325 99.1676C116.797 99.1676 116.366 99.5991 116.366 100.126C116.366 100.654 116.797 101.085 117.325 101.085ZM123.863 101.17C125.674 101.17 126.867 100.062 127.08 98.6136H125.823C125.589 99.5085 124.843 100.041 123.863 100.041C122.372 100.041 121.413 98.8054 121.413 96.9091C121.413 95.0554 122.393 93.8409 123.863 93.8409C124.971 93.8409 125.632 94.5227 125.823 95.2685H127.08C126.867 93.7344 125.568 92.7116 123.842 92.7116C121.626 92.7116 120.156 94.4588 120.156 96.9517C120.156 99.402 121.562 101.17 123.863 101.17ZM132.242 101.17C134.458 101.17 135.949 99.4872 135.949 96.9517C135.949 94.3949 134.458 92.7116 132.242 92.7116C130.026 92.7116 128.535 94.3949 128.535 96.9517C128.535 99.4872 130.026 101.17 132.242 101.17ZM132.242 100.041C130.559 100.041 129.792 98.5923 129.792 96.9517C129.792 95.3111 130.559 93.8409 132.242 93.8409C133.925 93.8409 134.692 95.3111 134.692 96.9517C134.692 98.5923 133.925 100.041 132.242 100.041ZM137.868 101H139.125V95.8864C139.125 94.6879 139.999 93.8409 140.979 93.8409C141.933 93.8409 142.598 94.4641 142.598 95.3963V101H143.877V95.6733C143.877 94.6186 144.537 93.8409 145.688 93.8409C146.583 93.8409 147.35 94.315 147.35 95.5241V101H148.607V95.5241C148.607 93.6012 147.574 92.7116 146.114 92.7116C144.942 92.7116 144.085 93.2496 143.664 94.0966H143.579C143.174 93.223 142.46 92.7116 141.384 92.7116C140.319 92.7116 139.53 93.223 139.189 94.0966H139.083V92.8182H137.868V101Z" fill="#191765"/>
<rect y="144" width="327" height="148" fill="white"/>
<path d="M13.321 173H19.9901V171.828H14.642V168.121H19.5639V166.949H14.642V163.263H19.9048V162.091H13.321V173ZM23.3725 168.078C23.3725 166.651 24.2567 165.841 25.4606 165.841C26.6271 165.841 27.3356 166.603 27.3356 167.886V173H28.5927V167.801C28.5927 165.713 27.4794 164.712 25.8228 164.712C24.587 164.712 23.82 165.266 23.4364 166.097H23.3299V164.818H22.1154V173H23.3725V168.078ZM34.4481 164.818H32.7009V162.858H31.4438V164.818H30.208V165.884H31.4438V170.997C31.4438 172.425 32.5944 173.107 33.6597 173.107C34.1285 173.107 34.4268 173.021 34.5972 172.957L34.3415 171.828C34.235 171.849 34.0645 171.892 33.7876 171.892C33.2336 171.892 32.7009 171.722 32.7009 170.656V165.884H34.4481V164.818ZM39.6816 173.17C41.3435 173.17 42.558 172.339 42.9415 171.104L41.727 170.763C41.4074 171.615 40.667 172.041 39.6816 172.041C38.2061 172.041 37.1887 171.088 37.1301 169.335H43.0693V168.803C43.0693 165.756 41.2583 164.712 39.5537 164.712C37.3378 164.712 35.8676 166.459 35.8676 168.973C35.8676 171.487 37.3165 173.17 39.6816 173.17ZM37.1301 168.249C37.2153 166.975 38.1155 165.841 39.5537 165.841C40.9173 165.841 41.7909 166.864 41.7909 168.249H37.1301ZM44.9816 173H46.2387V167.822C46.2387 166.714 47.1123 165.905 48.3055 165.905C48.6411 165.905 48.9873 165.969 49.0725 165.99V164.712C48.9287 164.701 48.5985 164.69 48.412 164.69C47.4319 164.69 46.5796 165.244 46.2813 166.054H46.1961V164.818H44.9816V173ZM58.3397 164.818H56.5925V162.858H55.3354V164.818H54.0996V165.884H55.3354V170.997C55.3354 172.425 56.486 173.107 57.5513 173.107C58.0201 173.107 58.3184 173.021 58.4888 172.957L58.2331 171.828C58.1266 171.849 57.9561 171.892 57.6792 171.892C57.1252 171.892 56.5925 171.722 56.5925 170.656V165.884H58.3397V164.818ZM63.5732 173.17C65.2351 173.17 66.4496 172.339 66.8331 171.104L65.6186 170.763C65.299 171.615 64.5586 172.041 63.5732 172.041C62.0977 172.041 61.0803 171.088 61.0217 169.335H66.9609V168.803C66.9609 165.756 65.1499 164.712 63.4453 164.712C61.2294 164.712 59.7592 166.459 59.7592 168.973C59.7592 171.487 61.2081 173.17 63.5732 173.17ZM61.0217 168.249C61.1069 166.975 62.0071 165.841 63.4453 165.841C64.8089 165.841 65.6825 166.864 65.6825 168.249H61.0217ZM69.591 164.818H68.1421L70.7416 168.909L68.1421 173H69.591L71.5512 169.825L73.5115 173H74.9603L72.3183 168.909L74.9603 164.818H73.5115L71.5512 168.163L69.591 164.818ZM80.3123 164.818H78.5652V162.858H77.3081V164.818H76.0723V165.884H77.3081V170.997C77.3081 172.425 78.4586 173.107 79.524 173.107C79.9927 173.107 80.291 173.021 80.4615 172.957L80.2058 171.828C80.0993 171.849 79.9288 171.892 79.6518 171.892C79.0978 171.892 78.5652 171.722 78.5652 170.656V165.884H80.3123V164.818ZM87.6792 168.078C87.6792 166.651 88.59 165.841 89.8311 165.841C91.0137 165.841 91.7275 166.587 91.7275 167.886V173H92.9846V167.801C92.9846 165.697 91.8659 164.712 90.1934 164.712C88.9043 164.712 88.1692 165.25 87.7857 166.097H87.6792V162.091H86.4221V173H87.6792V168.078ZM98.7148 173.17C100.377 173.17 101.591 172.339 101.975 171.104L100.76 170.763C100.441 171.615 99.7002 172.041 98.7148 172.041C97.2393 172.041 96.2219 171.088 96.1633 169.335H102.103V168.803C102.103 165.756 100.291 164.712 98.5869 164.712C96.371 164.712 94.9008 166.459 94.9008 168.973C94.9008 171.487 96.3497 173.17 98.7148 173.17ZM96.1633 168.249C96.2485 166.975 97.1487 165.841 98.5869 165.841C99.9506 165.841 100.824 166.864 100.824 168.249H96.1633ZM104.015 173H105.272V167.822C105.272 166.714 106.146 165.905 107.339 165.905C107.674 165.905 108.021 165.969 108.106 165.99V164.712C107.962 164.701 107.632 164.69 107.445 164.69C106.465 164.69 105.613 165.244 105.315 166.054H105.229V164.818H104.015V173ZM112.777 173.17C114.439 173.17 115.654 172.339 116.037 171.104L114.823 170.763C114.503 171.615 113.763 172.041 112.777 172.041C111.302 172.041 110.284 171.088 110.226 169.335H116.165V168.803C116.165 165.756 114.354 164.712 112.649 164.712C110.434 164.712 108.963 166.459 108.963 168.973C108.963 171.487 110.412 173.17 112.777 173.17ZM110.226 168.249C110.311 166.975 111.211 165.841 112.649 165.841C114.013 165.841 114.887 166.864 114.887 168.249H110.226Z" fill="#81818C"/>
</svg>
