<svg width="201" height="41" viewBox="0 0 201 41" fill="none" xmlns="http://www.w3.org/2000/svg">
<g clip-path="url(#clip0_73_62)">
<g clip-path="url(#clip1_73_62)">
<g clip-path="url(#clip2_73_62)">
<path d="M29.4994 17.6117C29.4994 16.4718 29.1334 15.4009 28.4347 14.4683C28.7008 13.5702 28.7674 12.4303 28.7008 11.1177C28.6676 10.565 28.235 10.1505 27.7027 10.1505C27.4032 10.1505 24.8746 10.1851 23.4106 11.5322C22.1463 11.2904 20.8154 11.2904 19.5178 11.5322C18.0872 10.1851 15.5585 10.1505 15.2258 10.1505C14.6934 10.1505 14.2609 10.565 14.2276 11.1177C14.1278 12.4303 14.2276 13.5702 14.4938 14.4683C13.7951 15.4355 13.4291 16.5063 13.4291 17.6117C13.4291 20.0296 15.2258 22.2058 17.9541 23.242C17.8543 23.4493 17.7877 23.6911 17.7212 23.9329C14.8265 23.622 13.4624 20.8932 13.3958 20.7895C13.1629 20.2714 12.5641 20.0642 12.065 20.3405C11.5659 20.5823 11.3663 21.2041 11.6324 21.7222C11.699 21.8949 13.5289 25.5909 17.5548 26.0054V29.1142C17.5548 29.7015 17.9873 30.1505 18.553 30.1505H24.3755C24.9411 30.1505 25.3737 29.7015 25.3737 29.1142V25.0037C25.3737 24.3819 25.2406 23.7947 25.0077 23.2766C27.7027 22.2058 29.4994 20.0642 29.4994 17.6117Z" fill="white"/>
</g>
</g>
<g clip-path="url(#clip3_73_62)">
<path d="M64.1444 13.1851C60.6556 13.1851 57.7886 16.0126 57.7886 19.5299V29.4609C57.7886 29.8402 58.0995 30.1506 58.4794 30.1506H62.0718C62.4518 30.1506 62.7627 29.8402 62.7627 29.4609V19.8057C62.7627 19.0471 63.3844 18.4264 64.1444 18.4264C64.9043 18.4264 65.5261 19.0471 65.5261 19.8057V29.4609C65.5261 29.8402 65.8369 30.1506 66.2169 30.1506H69.8093C70.1893 30.1506 70.5001 29.8402 70.5001 29.4609V19.5299C70.5001 16.0471 67.6677 13.1851 64.1444 13.1851Z" fill="white"/>
<path d="M54.7832 16.4264H51.1908C50.8109 16.4264 50.5 16.7367 50.5 17.116V29.4609C50.5 29.8402 50.8109 30.1505 51.1908 30.1505H54.7832C55.1632 30.1505 55.4741 29.8402 55.4741 29.4609V17.116C55.4741 16.7367 55.1632 16.4264 54.7832 16.4264Z" fill="white"/>
<path d="M52.987 10.1505C51.6054 10.1505 50.5 11.254 50.5 12.6333C50.5 14.0126 51.6054 15.116 52.987 15.116C54.3687 15.116 55.4741 14.0126 55.4741 12.6333C55.4741 11.254 54.3687 10.1505 52.987 10.1505Z" fill="white"/>
</g>
<g clip-path="url(#clip4_73_62)">
<path d="M99.964 30.1505C104.661 30.1505 107.583 26.6897 107.583 22.2247C107.583 20.5413 107.309 19.0213 105.398 18.5647C105.863 17.2913 107.205 13.608 107.205 12.428C107.205 11.3888 106.58 10.518 105.466 10.518C103.69 10.518 102.098 15.6622 101.6 16.8888C101.214 15.7755 99.4073 10.1505 97.8148 10.1505C96.5773 10.1505 95.9965 11.0447 95.9965 12.1697C95.9965 13.5488 97.3573 17.123 97.8507 18.498C97.6007 18.408 97.3298 18.3297 97.054 18.3297C96.1223 18.3297 95.1315 19.4663 95.1315 20.3847C95.1315 20.7322 95.3265 21.2205 95.4498 21.5447C93.9815 21.9355 93.4165 22.8963 93.4165 24.3455C93.4123 27.1655 96.1357 30.1505 99.964 30.1505V30.1505ZM103.989 14.3697C104.149 13.8888 104.829 11.858 105.466 11.858C105.808 11.858 105.9 12.2055 105.9 12.483C105.9 13.2288 104.364 17.3505 104.025 18.2638L102.672 18.0297L103.989 14.3697ZM97.2465 12.038V12.0372C97.2465 11.5722 97.824 10.2522 99.089 13.8772L100.467 17.7955C99.8457 17.7447 99.364 17.678 99.0582 17.8505C98.624 16.7255 97.2465 13.1747 97.2465 12.038V12.038ZM97.1548 19.6813L97.1557 19.6822C98.3215 19.6822 99.8265 23.3772 99.8265 23.8772C99.8265 24.0763 99.6315 24.3222 99.4048 24.3222C98.5723 24.3222 96.3432 21.318 96.3432 20.5055C96.3465 20.2047 96.8482 19.6813 97.1548 19.6813V19.6813ZM95.8148 22.7397C96.2682 22.7397 97.9757 25.0955 97.9757 25.5955C97.9757 25.7872 97.669 25.9197 97.5107 25.9197C96.8698 25.9197 96.619 25.3138 95.4773 23.9122C94.2948 25.0722 96.2932 27.3063 97.7982 27.3063C98.8365 27.3063 99.5132 26.3613 99.3107 25.6655C99.4582 25.6655 99.6407 25.6772 99.7765 25.6422C99.8207 26.7005 100.139 27.9622 101.437 28.0522C101.437 28.0172 101.517 27.7747 101.517 27.763C101.517 27.083 101.095 26.4897 101.095 25.798C101.095 24.6922 101.958 23.6222 102.834 22.9972C103.152 22.763 103.539 22.618 103.912 22.4855C104.299 22.3413 104.709 22.173 105.002 21.8838C104.958 21.4463 104.776 21.0597 104.33 21.0597C103.227 21.0597 99.5298 21.2163 99.5298 19.5088C99.5298 19.2472 99.534 18.9972 100.223 18.9972C101.509 18.9972 104.773 19.3097 105.728 20.1338C106.448 20.763 106.696 24.5555 104.494 26.958L104.492 26.9588C103.333 28.2088 101.852 28.8572 100.125 28.8572C97.7607 28.8572 95.8932 27.5838 94.994 25.408C94.3132 23.713 95.1457 22.7397 95.8148 22.7397V22.7397ZM100.566 22.0363C100.953 22.158 101.351 22.1938 101.749 22.2713C101.454 22.4822 101.192 22.7405 100.941 23.0172C100.829 22.6855 100.693 22.3613 100.566 22.0363Z" fill="white"/>
</g>
<g clip-path="url(#clip5_73_62)">
<g clip-path="url(#clip6_73_62)">
<path d="M150.266 10.5202C149.933 10.1215 149.366 10.0218 148.933 10.3208L147 11.6497C146.1 10.6863 144.833 10.1547 143.466 10.1547C140.766 10.1547 138.533 12.3474 138.533 15.0716C138.533 15.4703 138.566 15.8358 138.666 16.2012C136.333 15.7029 134.933 14.0085 134.4 10.952C134.333 10.5534 134.033 10.2544 133.633 10.1547C133.266 10.055 132.866 10.2212 132.633 10.5202C132.566 10.5866 127.066 18.2278 135.033 24.7062C134.266 26.3341 131.966 27.7294 131.066 28.1945C130.633 28.3939 130.433 28.859 130.533 29.3241C130.633 29.7892 131.033 30.0882 131.5 30.0882H133.233C143.366 30.0882 147.966 25.0716 148.066 13.8424L150.166 11.8491C150.566 11.5168 150.6 10.9188 150.266 10.5202Z" fill="white"/>
</g>
</g>
<path d="M188.904 14.0309L190.5 12.4882V12.1505H184.972L181.032 22.0604L176.549 12.1505H170.752V12.4882L172.617 14.756C172.798 14.9236 172.893 15.1686 172.869 15.4154V24.3274C172.927 24.6482 172.823 24.9783 172.6 25.2116L170.5 27.7834V28.1168H176.454V27.7791L174.354 25.2116C174.127 24.9775 174.019 24.6532 174.065 24.3274V16.6187L179.292 28.121H179.899L184.393 16.6187V25.7817C184.393 26.0234 184.393 26.073 184.237 26.2314L182.62 27.812V28.1505H190.463V27.8128L188.905 26.2709C188.768 26.1665 188.697 25.9914 188.727 25.8212V14.4806C188.697 14.3097 188.767 14.1345 188.904 14.0309Z" fill="white"/>
</g>
<defs>
<clipPath id="clip0_73_62">
<rect width="200" height="40" fill="white" transform="translate(0.5 0.150513)"/>
</clipPath>
<clipPath id="clip1_73_62">
<rect width="18" height="20" fill="white" transform="translate(11.5 10.1505)"/>
</clipPath>
<clipPath id="clip2_73_62">
<rect width="18" height="20" fill="white" transform="translate(11.5 10.1505)"/>
</clipPath>
<clipPath id="clip3_73_62">
<rect width="20" height="20" fill="white" transform="translate(50.5 10.1505)"/>
</clipPath>
<clipPath id="clip4_73_62">
<rect width="20" height="20" fill="white" transform="translate(90.5 10.1505)"/>
</clipPath>
<clipPath id="clip5_73_62">
<rect width="20" height="20" fill="white" transform="translate(130.5 10.1505)"/>
</clipPath>
<clipPath id="clip6_73_62">
<rect width="20" height="19.9667" fill="white" transform="translate(130.5 10.1218)"/>
</clipPath>
</defs>
</svg>
